HIERARCHY
ROOT Root
{
  OFFSET 0.0 0.0 0.0
  CHANNELS 6 Xposition Yposition Zposition Zrotation Yrotation Xrotation
  JOINT Hips
  {
    OFFSET 0.0 100.0 0.0
    CHANNELS 6 Xposition Yposition Zposition Zrotation Yrotation Xrotation
    JOINT Spine1
    {
      OFFSET -0.013727 5.003763 -0.053727
      CHANNELS 3 Zrotation Yrotation Xrotation
      JOINT Spine2
      {
        OFFSET -0.0 7.125301 -0.029825
        CHANNELS 3 Zrotation Yrotation Xrotation
        JOINT Chest
        {
          OFFSET -1e-06 7.550063 -0.815971
          CHANNELS 3 Zrotation Yrotation Xrotation
          JOINT Neck1
          {
            OFFSET -0.181677 26.311295 -0.553348
            CHANNELS 3 Zrotation Yrotation Xrotation
            JOINT Neck2
            {
              OFFSET -3e-06 7.709397 2.302585
              CHANNELS 3 Zrotation Yrotation Xrotation
              JOINT Head
              {
                OFFSET -5e-06 6.128916 1.953709
                CHANNELS 3 Zrotation Yrotation Xrotation
                JOINT HeadEnd
                {
                  OFFSET 0.003598 16.065403 -1.835379
                  CHANNELS 3 Zrotation Yrotation Xrotation
                }
                JOINT Jaw
                {
                  OFFSET 0.002637 0.475592 3.094941
                  CHANNELS 3 Zrotation Yrotation Xrotation
                }
                JOINT LeftEye
                {
                  OFFSET 3.206381 5.380205 7.586883
                  CHANNELS 3 Zrotation Yrotation Xrotation
                }
                JOINT RightEye
                {
                  OFFSET -3.22244 5.361869 7.558234
                  CHANNELS 3 Zrotation Yrotation Xrotation
                }
              }
            }
          }
          JOINT LeftShoulder
          {
            OFFSET 1.621652 23.237164 5.113413
            CHANNELS 3 Zrotation Yrotation Xrotation
            JOINT LeftArm
            {
              OFFSET 14.919846 2e-06 -5.502326
              CHANNELS 3 Zrotation Yrotation Xrotation
              JOINT LeftForeArm
              {
                OFFSET 28.739307 0.0 -0.002588
                CHANNELS 3 Zrotation Yrotation Xrotation
                JOINT LeftHand
                {
                  OFFSET 27.093981 -1e-06 0.002609
                  CHANNELS 3 Zrotation Yrotation Xrotation
                  JOINT LeftHandThumb1
                  {
                    OFFSET 2.276482 -1.392045 3.191413
                    CHANNELS 3 Zrotation Yrotation Xrotation
                    JOINT LeftHandThumb2
                    {
                      OFFSET 4.012836 -1.828127 1.641654
                      CHANNELS 3 Zrotation Yrotation Xrotation
                      JOINT LeftHandThumb3
                      {
                        OFFSET 2.798515 0.0 -3e-06
                        CHANNELS 3 Zrotation Yrotation Xrotation
                        JOINT LeftHandThumbEnd
                        {
                          OFFSET 3.180793 -4e-06 4e-06
                          CHANNELS 3 Zrotation Yrotation Xrotation
                        }
                      }
                    }
                  }
                  JOINT LeftHandIndex1
                  {
                    OFFSET 3.247555 -0.531998 2.296169
                    CHANNELS 3 Zrotation Yrotation Xrotation
                    JOINT LeftHandIndex2
                    {
                      OFFSET 6.364578 0.01206 0.1786
                      CHANNELS 3 Zrotation Yrotation Xrotation
                      JOINT LeftHandIndex3
                      {
                        OFFSET 3.662364 0.0 0.0
                        CHANNELS 3 Zrotation Yrotation Xrotation
                        JOINT LeftHandIndex4
                        {
                          OFFSET 2.329242 4e-06 4e-06
                          CHANNELS 3 Zrotation Yrotation Xrotation
                          JOINT LeftHandIndexEnd
                          {
                            OFFSET 2.759615 -0.180537 -0.113024
                            CHANNELS 3 Zrotation Yrotation Xrotation
                          }
                        }
                      }
                    }
                  }
                  JOINT LeftHandMiddle1
                  {
                    OFFSET 3.163495 0.240981 1.000332
                    CHANNELS 3 Zrotation Yrotation Xrotation
                    JOINT LeftHandMiddle2
                    {
                      OFFSET 6.19078 -0.259278 -1.002548
                      CHANNELS 3 Zrotation Yrotation Xrotation
                      JOINT LeftHandMiddle3
                      {
                        OFFSET 4.35652 -4e-06 -1e-06
                        CHANNELS 3 Zrotation Yrotation Xrotation
                        JOINT LeftHandMiddle4
                        {
                          OFFSET 2.996877 -8e-06 0.0
                          CHANNELS 3 Zrotation Yrotation Xrotation
                          JOINT LeftHandMiddleEnd
                          {
                            OFFSET 2.304287 -0.294569 -0.031741
                            CHANNELS 3 Zrotation Yrotation Xrotation
                          }
                        }
                      }
                    }
                  }
                  JOINT LeftHandRing1
                  {
                    OFFSET 2.882643 -0.053652 -0.322543
                    CHANNELS 3 Zrotation Yrotation Xrotation
                    JOINT LeftHandRing2
                    {
                      OFFSET 5.854541 -0.486202 -1.373841
                      CHANNELS 3 Zrotation Yrotation Xrotation
                      JOINT LeftHandRing3
                      {
                        OFFSET 4.350578 0.0 3e-06
                        CHANNELS 3 Zrotation Yrotation Xrotation
                        JOINT LeftHandRing4
                        {
                          OFFSET 2.651321 7e-06 2e-06
                          CHANNELS 3 Zrotation Yrotation Xrotation
                          JOINT LeftHandRingEnd
                          {
                            OFFSET 1.936105 0.077687 -7.1e-05
                            CHANNELS 3 Zrotation Yrotation Xrotation
                          }
                        }
                      }
                    }
                  }
                  JOINT LeftHandPinky1
                  {
                    OFFSET 2.8655 -0.310005 -1.600378
                    CHANNELS 3 Zrotation Yrotation Xrotation
                    JOINT LeftHandPinky2
                    {
                      OFFSET 5.087849 -1.331141 -1.77123
                      CHANNELS 3 Zrotation Yrotation Xrotation
                      JOINT LeftHandPinky3
                      {
                        OFFSET 3.070974 4e-06 0.0
                        CHANNELS 3 Zrotation Yrotation Xrotation
                        JOINT LeftHandPinky4
                        {
                          OFFSET 1.549672 0.0 1e-06
                          CHANNELS 3 Zrotation Yrotation Xrotation
                          JOINT LeftHandPinkyEnd
                          {
                            OFFSET 1.944893 -0.157802 0.057219
                            CHANNELS 3 Zrotation Yrotation Xrotation
                          }
                        }
                      }
                    }
                  }
                }
              }
            }
          }
          JOINT RightShoulder
          {
            OFFSET -1.380118 23.180309 5.214158
            CHANNELS 3 Zrotation Yrotation Xrotation
            JOINT RightArm
            {
              OFFSET -15.037196 1.2e-05 -5.545604
              CHANNELS 3 Zrotation Yrotation Xrotation
              JOINT RightForeArm
              {
                OFFSET -28.736639 2e-06 -0.002597
                CHANNELS 3 Zrotation Yrotation Xrotation
                JOINT RightHand
                {
                  OFFSET -27.133619 -0.0 0.002613
                  CHANNELS 3 Zrotation Yrotation Xrotation
                  JOINT RightHandThumb1
                  {
                    OFFSET -2.274032 -1.383988 3.163127
                    CHANNELS 3 Zrotation Yrotation Xrotation
                    JOINT RightHandThumb2
                    {
                      OFFSET -4.011429 -1.827466 1.640914
                      CHANNELS 3 Zrotation Yrotation Xrotation
                      JOINT RightHandThumb3
                      {
                        OFFSET -2.794935 -4e-06 -3e-06
                        CHANNELS 3 Zrotation Yrotation Xrotation
                        JOINT RightHandThumbEnd
                        {
                          OFFSET -3.183852 4e-06 1e-06
                          CHANNELS 3 Zrotation Yrotation Xrotation
                        }
                      }
                    }
                  }
                  JOINT RightHandIndex1
                  {
                    OFFSET -3.253266 -0.520057 2.282866
                    CHANNELS 3 Zrotation Yrotation Xrotation
                    JOINT RightHandIndex2
                    {
                      OFFSET -6.341917 0.012471 0.178266
                      CHANNELS 3 Zrotation Yrotation Xrotation
                      JOINT RightHandIndex3
                      {
                        OFFSET -3.654871 -8e-06 -0.0
                        CHANNELS 3 Zrotation Yrotation Xrotation
                        JOINT RightHandIndex4
                        {
                          OFFSET -2.327586 0.0 1e-06
                          CHANNELS 3 Zrotation Yrotation Xrotation
                          JOINT RightHandIndexEnd
                          {
                            OFFSET -2.76179 -0.180656 -0.113078
                            CHANNELS 3 Zrotation Yrotation Xrotation
                          }
                        }
                      }
                    }
                  }
                  JOINT RightHandMiddle1
                  {
                    OFFSET -3.168106 0.246593 1.00103
                    CHANNELS 3 Zrotation Yrotation Xrotation
                    JOINT RightHandMiddle2
                    {
                      OFFSET -6.180828 -0.258836 -1.000895
                      CHANNELS 3 Zrotation Yrotation Xrotation
                      JOINT RightHandMiddle3
                      {
                        OFFSET -4.348901 0.0 -0.0
                        CHANNELS 3 Zrotation Yrotation Xrotation
                        JOINT RightHandMiddle4
                        {
                          OFFSET -3.00024 -4e-06 -2e-06
                          CHANNELS 3 Zrotation Yrotation Xrotation
                          JOINT RightHandMiddleEnd
                          {
                            OFFSET -2.30252 -0.29437 -0.031706
                            CHANNELS 3 Zrotation Yrotation Xrotation
                          }
                        }
                      }
                    }
                  }
                  JOINT RightHandRing1
                  {
                    OFFSET -2.88569 -0.067952 -0.308858
                    CHANNELS 3 Zrotation Yrotation Xrotation
                    JOINT RightHandRing2
                    {
                      OFFSET -5.854198 -0.48613 -1.373731
                      CHANNELS 3 Zrotation Yrotation Xrotation
                      JOINT RightHandRing3
                      {
                        OFFSET -4.33881 -4e-06 -0.0
                        CHANNELS 3 Zrotation Yrotation Xrotation
                        JOINT RightHandRing4
                        {
                          OFFSET -2.654903 -4e-06 4e-06
                          CHANNELS 3 Zrotation Yrotation Xrotation
                          JOINT RightHandRingEnd
                          {
                            OFFSET -1.933568 0.077527 -5.2e-05
                            CHANNELS 3 Zrotation Yrotation Xrotation
                          }
                        }
                      }
                    }
                  }
                  JOINT RightHandPinky1
                  {
                    OFFSET -2.866425 -0.342796 -1.584145
                    CHANNELS 3 Zrotation Yrotation Xrotation
                    JOINT RightHandPinky2
                    {
                      OFFSET -5.091371 -1.332055 -1.772385
                      CHANNELS 3 Zrotation Yrotation Xrotation
                      JOINT RightHandPinky3
                      {
                        OFFSET -3.062664 -4e-06 1e-06
                        CHANNELS 3 Zrotation Yrotation Xrotation
                        JOINT RightHandPinky4
                        {
                          OFFSET -1.546529 4e-06 -2e-06
                          CHANNELS 3 Zrotation Yrotation Xrotation
                          JOINT RightHandPinkyEnd
                          {
                            OFFSET -1.945119 -0.157718 0.057211
                            CHANNELS 3 Zrotation Yrotation Xrotation
                          }
                        }
                      }
                    }
                  }
                }
              }
            }
          }
        }
      }
    }
    JOINT LeftLeg
    {
      OFFSET 10.043214 -8.434526 2.595655
      CHANNELS 3 Zrotation Yrotation Xrotation
      JOINT LeftShin
      {
        OFFSET -1e-06 -43.221752 -0.802913
        CHANNELS 3 Zrotation Yrotation Xrotation
        JOINT LeftFoot
        {
          OFFSET 1e-06 -42.155094 -3.481523
          CHANNELS 3 Zrotation Yrotation Xrotation
          JOINT LeftToeBase
          {
            OFFSET 0.0 -5.059472 13.231529
            CHANNELS 3 Zrotation Yrotation Xrotation
            JOINT LeftToeEnd
            {
              OFFSET -0.009607 -1.647619 6.513017
              CHANNELS 3 Zrotation Yrotation Xrotation
            }
          }
        }
      }
    }
    JOINT RightLeg
    {
      OFFSET -10.047278 -8.29526 2.620317
      CHANNELS 3 Zrotation Yrotation Xrotation
      JOINT RightShin
      {
        OFFSET 1e-06 -43.362206 -0.805556
        CHANNELS 3 Zrotation Yrotation Xrotation
        JOINT RightFoot
        {
          OFFSET 2e-06 -42.117393 -3.478398
          CHANNELS 3 Zrotation Yrotation Xrotation
          JOINT RightToeBase
          {
            OFFSET -0.0 -5.079609 13.284196
            CHANNELS 3 Zrotation Yrotation Xrotation
            JOINT RightToeEnd
            {
              OFFSET 0.009532 -1.634378 6.460591
              CHANNELS 3 Zrotation Yrotation Xrotation
            }
          }
        }
      }
    }
  }
}
MOTION
Frames: 4
Frame Time: 0.03333333333333333
0.64404 0.137016 0.027046 0.0 -0.0 0.0 0.64404 99.952087 0.027046 1.594582 -2.142291 -2.486145 0.236925 -0.048261 -7.716152 -0.632896 -1.459679 -7.786746 -0.925403 -2.861659 14.673467 -8.060846 4.284679 -4.733669 -1.216575 -1.322734 -3.353023 2.993113 -7.104171 6.943139 -1.9e-05 -0.002838 -0.000171 0.017241 0.144109 -0.15923 0.808801 -3.507253 -10.553816 -0.788577 3.80883 -10.600616 -4.013226 -5.311032 8.493701 7.712774 -34.078865 -55.003277 176.659088 -53.184837 -177.279953 3.813957 -8.914887 -47.564575 -5.85814 9.921364 0.612788 -10.935047 -0.334508 7.134256 0.000817 8.780088 0.000872 -17.215521 17.970984 5.287282 -1.852086 2.4983 -2.499106 -10.138577 4.668139 4.633021 -20.942387 -0.010252 0.003273 -21.19787 2.457084 -3.589889 -0.006457 -0.002908 -0.00023 -1.361753 2.235392 -0.729017 -21.303354 0.574424 3.005044 -13.811117 -0.002133 0.000317 -23.846495 -0.249452 -0.835688 -60.780994 2.246679 -1.363392 -0.282534 1.672516 0.856798 -14.199617 0.084928 1.293451 -34.189732 -0.300202 0.966944 -20.012056 0.969684 1.211361 0.000433 -0.000346 -0.001824 -3.423223 0.77914 0.526282 -15.931475 -3.177475 2.984266 -6.332369 -0.005113 -0.002026 -18.115431 3.657596 -4.909204 0.00038 -0.007321 -0.001521 8.491601 8.727731 15.248776 67.898506 17.966143 37.836922 0.58244 19.605322 0.072701 -0.605871 -1.794423 -3.688111 2.24474 -5.29027 -3.218765 14.290615 -0.819695 6.955559 -0.009285 -12.688394 -0.009592 16.295351 -18.522181 2.543197 1.670592 -1.96141 -2.865013 4.713854 -4.150767 4.994499 11.00186 0.008957 -0.00053 12.073371 -3.71979 -2.879961 1.1e-05 0.004238 -0.0091 1.283708 -1.912619 -1.498769 14.791333 0.555658 3.875557 14.216605 -1.330984 -6.662575 19.584301 0.151414 -0.614077 50.197174 -0.788291 -7.195149 0.343487 -1.502694 -0.029545 20.20776 3.690356 2.304548 18.758718 -0.008207 0.015883 10.749905 -0.479379 1.393372 0.00721 0.000854 0.010636 3.250068 0.330678 -0.580304 21.493114 11.822392 2.267674 8.163679 0.002325 0.011733 18.357943 -3.807231 -4.940434 -0.000905 -0.011157 -0.007878 2.249597 5.836815 1.308981 0.010953 -0.192918 4.931737 -5.784586 -0.232145 -3.761133 1.630972 -1.966004 0.501299 6.8e-05 1.1e-05 0.003085 -4.700089 9.038651 -3.161062 -0.097957 0.147045 12.562657 6.655954 -6.580219 -7.789966 -1.426055 1.095619 0.195196 0.000186 0.000224 0.008309 
0.500276 0.137016 -0.060281 0.0 -0.0 0.0 0.500276 99.903282 -0.060281 1.543779 -1.928003 -2.537356 0.174076 -0.070803 -7.762984 -0.68933 -1.353783 -7.825508 -0.932905 -3.12982 14.907219 -8.259945 4.30475 -4.7932 -0.966434 -1.4618 -3.411288 3.28989 -6.746997 6.928132 0.001116 -0.006939 0.000319 0.000689 0.147856 -0.126339 0.791594 -3.537236 -10.602482 -0.808395 3.840825 -10.665431 -3.877233 -5.370938 8.162507 7.450089 -33.972523 -56.15519 178.689819 -53.260151 -179.065414 4.143695 -8.158489 -48.227203 -5.827731 9.883321 0.757966 -10.968221 -0.344206 7.177212 0.003973 8.774101 0.004509 -17.452616 18.042185 5.256858 -1.846885 2.500288 -2.50995 -10.138607 4.669986 4.622005 -20.930676 -0.004434 -0.010635 -21.179653 2.454143 -3.59374 7.5e-05 -0.000843 -0.000561 -1.342843 2.234705 -0.741457 -21.315788 0.584923 3.001798 -13.80854 0.003797 -0.003534 -23.834249 -0.253895 -0.832573 -61.532982 2.168129 -1.111389 -0.27602 1.672693 0.840812 -14.20799 0.100936 1.292956 -34.154831 -0.294745 0.960185 -19.997223 0.968436 1.203903 -0.012798 0.004269 0.000667 -3.407237 0.786875 0.506778 -15.920299 -3.187459 2.994703 -6.340083 0.001517 -0.000321 -18.07449 3.657343 -4.904582 0.004017 0.004835 0.001258 8.436983 8.952209 15.611217 68.108574 18.321379 37.739624 0.696125 19.257521 0.110833 -0.444223 -1.582641 -3.567376 2.253299 -5.205428 -3.055516 14.29394 -0.838932 6.963413 0.002607 -12.700082 0.016301 16.173298 -18.218781 2.5667 1.665475 -1.959514 -2.875838 4.719377 -4.164348 4.995083 11.016209 0.001312 -0.006021 12.110924 -3.736023 -2.866313 0.002834 -0.002755 0.019141 1.284573 -1.923056 -1.481744 14.792418 0.571359 3.853557 14.236249 -1.343752 -6.652421 19.622957 0.165955 -0.656589 50.239922 -1.037084 -6.918512 0.35172 -1.51725 -0.022802 20.227787 3.697144 2.316784 18.809242 0.001842 -0.012272 10.764091 -0.499087 1.414032 0.002358 0.008134 -0.005418 3.263471 0.310917 -0.597694 21.494637 11.817647 2.273808 8.170241 0.02105 -0.001115 18.3946 -3.799319 -4.905914 -0.004527 -0.001288 -0.005149 2.409421 5.771812 0.792104 -0.0286 -0.17864 5.961802 -6.304068 -0.322241 -4.139201 1.617937 -2.036042 0.50092 0.000485 -0.000313 0.002786 -4.687896 8.929139 -3.34161 -0.052148 -0.019084 13.028695 6.800642 -6.41092 -7.975799 -1.416452 1.128262 0.194302 0.000521 -0.000184 0.00162 
0.503451 0.137016 -0.094052 0.0 -0.0 0.0 0.503451 99.926445 -0.094052 1.556462 -2.00572 -2.564431 0.134442 -0.041093 -7.735847 -0.691235 -1.356998 -7.824619 -0.90654 -3.100517 14.907619 -8.215322 4.230532 -4.844964 -0.943485 -1.422348 -3.457132 3.2478 -6.860537 6.816876 -0.000981 -0.002511 0.003246 -0.002647 0.168734 -0.127685 0.790777 -3.499579 -10.587265 -0.804716 3.860328 -10.646384 -3.937576 -5.426091 8.173844 7.713814 -33.89447 -56.041782 178.870941 -53.475445 -179.171738 4.316614 -7.875001 -48.585846 -5.859766 9.859685 0.738699 -10.925812 -0.305592 7.17675 -0.00661 8.789277 0.003742 -17.34919 18.056042 5.352067 -1.843581 2.495731 -2.507226 -10.14678 4.672929 4.621069 -20.933477 -0.010273 0.004522 -21.183706 2.451142 -3.585394 -0.00016 -0.005809 0.001498 -1.351179 2.243425 -0.732535 -21.305611 0.56412 3.004901 -13.793984 -0.005733 0.005897 -23.802485 -0.255813 -0.821538 -61.283566 2.152501 -1.065827 -0.286607 1.687157 0.850368 -14.194688 0.066206 1.289988 -34.121658 -0.30222 0.976183 -20.014856 0.961011 1.214692 0.005969 -0.002858 -0.001188 -3.391634 0.777798 0.520253 -15.932272 -3.178008 2.981517 -6.32688 -0.007452 0.001773 -18.05356 3.646472 -4.879589 -0.000281 0.006592 -0.001054 8.438443 8.935157 15.468963 68.201111 18.200695 37.84314 0.711016 19.207458 0.122368 -0.434333 -1.643774 -3.66355 2.250106 -5.223106 -2.99218 14.306596 -0.821154 7.020907 0.009528 -12.684086 -0.003315 16.080975 -18.10075 2.567813 1.677868 -1.958749 -2.857258 4.728815 -4.175615 4.957213 11.031507 -0.007916 0.002056 12.136242 -3.752809 -2.869776 0.001741 0.00263 0.000154 1.302642 -1.936347 -1.510913 14.790946 0.55472 3.889087 14.252208 -1.356652 -6.689873 19.631659 0.123409 -0.666455 50.21273 -1.010908 -6.971116 0.367857 -1.515257 -0.032203 20.200336 3.66985 2.303857 18.809755 -0.024999 0.015239 10.766213 -0.496473 1.406414 -0.00193 -0.005478 0.009383 3.296925 0.301818 -0.590869 21.463963 11.811739 2.264483 8.177217 0.001319 -0.001153 18.426737 -3.810303 -4.945765 -0.003046 -0.006406 0.005854 2.392732 5.782641 1.050138 -0.02088 -0.149671 5.508463 -6.300063 -0.303263 -4.07727 1.62083 -2.02204 0.553207 -0.000678 -0.000391 0.001546 -4.70899 8.898729 -3.226879 -0.065017 -0.010655 12.838303 6.742654 -6.310367 -7.857654 -1.410888 1.121086 0.268545 -0.000324 0.000227 -0.001093 
0.597764 0.137016 -0.026011 0.0 -0.0 0.0 0.597764 99.922058 -0.026011 1.53519 -2.05015 -2.563056 0.126951 -0.02139 -7.750729 -0.690312 -1.36478 -7.791913 -0.902969 -3.095726 14.876697 -8.143939 4.200974 -4.904858 -0.960725 -1.49389 -3.461046 3.237244 -6.899754 6.739895 0.000127 -0.001827 0.000139 -0.000749 0.149885 -0.135532 0.799488 -3.530792 -10.58691 -0.81383 3.835608 -10.644545 -3.954072 -5.420028 8.195602 7.956785 -33.834591 -55.897327 179.105698 -53.783607 -179.323181 4.324066 -7.80653 -48.931599 -5.880165 9.875353 0.739033 -10.971308 -0.336005 7.144245 0.003585 8.780353 0.005645 -17.208574 18.048182 5.379484 -1.858454 2.502685 -2.511874 -10.133724 4.670277 4.620676 -20.947783 -0.006965 0.006877 -21.173819 2.452049 -3.578074 -8.8e-05 0.001164 0.000925 -1.364475 2.252678 -0.740159 -21.332264 0.560989 3.001419 -13.822322 -0.001448 0.002487 -23.921646 -0.257394 -0.841796 -61.443432 2.097627 -1.086654 -0.308452 1.694936 0.841629 -14.202836 0.072621 1.288568 -34.169064 -0.276534 0.979946 -20.025185 0.974118 1.216872 0.011804 -0.007959 0.005678 -3.432058 0.809874 0.510809 -15.936177 -3.213804 2.986116 -6.322654 -0.003099 0.003766 -18.070694 3.66317 -4.894805 0.000212 0.004123 -0.004985 8.401835 8.888633 15.347833 68.230423 18.10989 37.82386 0.788472 19.263914 0.11844 -0.560418 -1.631836 -3.720201 2.26044 -5.221728 -3.052264 14.295108 -0.828967 6.995886 -0.000494 -12.677238 -0.001551 16.04693 -18.105642 2.578167 1.65957 -1.955826 -2.904458 4.724755 -4.177343 5.009 11.010951 0.004809 0.008637 12.094025 -3.738299 -2.884192 0.001971 -0.003016 0.009609 1.278435 -1.925628 -1.503034 14.797427 0.568752 3.857799 14.234096 -1.334335 -6.654713 19.637428 0.145964 -0.644123 50.232365 -0.983177 -6.855863 0.340697 -1.505297 -0.050875 20.216797 3.672754 2.324684 18.778061 0.001877 0.008704 10.746449 -0.494032 1.392835 -0.003084 0.013267 0.00053 3.253556 0.305215 -0.590638 21.482491 11.832528 2.264938 8.150143 -0.004774 0.02166 18.349161 -3.79641 -4.922698 0.006776 0.005362 -0.001349 2.331611 5.841894 1.038892 -0.019443 -0.138799 5.67206 -6.193339 -0.335374 -4.319208 1.610628 -2.012401 0.544837 0.000239 0.000777 0.000978 -4.682096 8.920516 -3.185156 -0.071992 -0.004872 12.762403 6.697854 -6.245109 -7.931393 -1.408971 1.117691 0.2794 -8.1e-05 -0.000158 0.005499 
